<svg width="32" height="32" viewBox="0 0 32 32" fill="none" xmlns="http://www.w3.org/2000/svg">
<g clip-path="url(#clip0_16_307)" filter="url(#filter0_d_16_307)">
<path d="M22.7499 24C24.1423 24 25.4777 23.4469 26.4622 22.4623C27.4468 21.4777 27.9999 20.1424 27.9999 18.75C27.9999 17.3576 27.4468 16.0223 26.4622 15.0377C25.4777 14.0531 24.1423 13.5 22.7499 13.5C21.3576 13.5 20.0222 14.0531 19.0376 15.0377C18.0531 16.0223 17.4999 17.3576 17.4999 18.75C17.4999 20.1424 18.0531 21.4777 19.0376 22.4623C20.0222 23.4469 21.3576 24 22.7499 24ZM23.4999 16.5V18H24.9999C25.1989 18 25.3896 18.079 25.5303 18.2197C25.6709 18.3603 25.7499 18.5511 25.7499 18.75C25.7499 18.9489 25.6709 19.1397 25.5303 19.2803C25.3896 19.421 25.1989 19.5 24.9999 19.5H23.4999V21C23.4999 21.1989 23.4209 21.3897 23.2803 21.5303C23.1396 21.671 22.9489 21.75 22.7499 21.75C22.551 21.75 22.3603 21.671 22.2196 21.5303C22.079 21.3897 21.9999 21.1989 21.9999 21V19.5H20.4999C20.301 19.5 20.1103 19.421 19.9696 19.2803C19.829 19.1397 19.7499 18.9489 19.7499 18.75C19.7499 18.5511 19.829 18.3603 19.9696 18.2197C20.1103 18.079 20.301 18 20.4999 18H21.9999V16.5C21.9999 16.3011 22.079 16.1103 22.2196 15.9697C22.3603 15.829 22.551 15.75 22.7499 15.75C22.9489 15.75 23.1396 15.829 23.2803 15.9697C23.4209 16.1103 23.4999 16.3011 23.4999 16.5Z" fill="#1D3A76"/>
<path d="M17.0605 2.24997C16.7792 1.96876 16.3977 1.81079 16 1.81079C15.6022 1.81079 15.2208 1.96876 14.9395 2.24997L4.96897 12.219C4.89924 12.2887 4.84392 12.3715 4.80619 12.4626C4.76845 12.5537 4.74902 12.6514 4.74902 12.75C4.74902 12.8486 4.76845 12.9462 4.80619 13.0373C4.84392 13.1285 4.89924 13.2112 4.96897 13.281C5.1098 13.4218 5.30081 13.5009 5.49997 13.5009C5.59859 13.5009 5.69624 13.4815 5.78735 13.4438C5.87845 13.406 5.96124 13.3507 6.03097 13.281L16 3.31047L25.969 13.281C26.1098 13.4218 26.3008 13.5009 26.5 13.5009C26.6991 13.5009 26.8901 13.4218 27.031 13.281C27.1718 13.1401 27.2509 12.9491 27.2509 12.75C27.2509 12.5508 27.1718 12.3598 27.031 12.219L23.5 8.68947V3.74997C23.5 3.55106 23.4209 3.36029 23.2803 3.21964C23.1396 3.07899 22.9489 2.99997 22.75 2.99997H21.25C21.0511 2.99997 20.8603 3.07899 20.7196 3.21964C20.579 3.36029 20.5 3.55106 20.5 3.74997V5.68947L17.0605 2.24997Z" fill="#1D3A76"/>
<path d="M7.75 14.2501L16 6.00011L21.3766 11.3767C20.5909 11.523 19.83 11.7946 19.1239 12.1845C17.9086 12.8556 16.9035 13.8508 16.2204 15.0593C15.5373 16.2678 15.203 17.6422 15.2547 19.0294C15.2898 19.971 15.5018 20.8935 15.8756 21.75H9.25C8.85218 21.75 8.47064 21.5919 8.18934 21.3106C7.90804 21.0293 7.75 20.6478 7.75 20.25V14.2501Z" stroke="#1D3A76" stroke-width="1.5"/>
</g>
<defs>
<filter id="filter0_d_16_307" x="0" y="0" width="32" height="32" filterUnits="userSpaceOnUse" color-interpolation-filters="sRGB">
<feFlood flood-opacity="0" result="BackgroundImageFix"/>
<feColorMatrix in="SourceAlpha" type="matrix" values="0 0 0 0 0 0 0 0 0 0 0 0 0 0 0 0 0 0 127 0" result="hardAlpha"/>
<feOffset dy="4"/>
<feGaussianBlur stdDeviation="2"/>
<feComposite in2="hardAlpha" operator="out"/>
<feColorMatrix type="matrix" values="0 0 0 0 0 0 0 0 0 0 0 0 0 0 0 0 0 0 0.25 0"/>
<feBlend mode="normal" in2="BackgroundImageFix" result="effect1_dropShadow_16_307"/>
<feBlend mode="normal" in="SourceGraphic" in2="effect1_dropShadow_16_307" result="shape"/>
</filter>
<clipPath id="clip0_16_307">
<rect width="24" height="24" fill="white" transform="translate(4)"/>
</clipPath>
</defs>
</svg>
