<svg width="20" height="14" viewBox="0 0 20 14" fill="none" xmlns="http://www.w3.org/2000/svg">
<path fill-rule="evenodd" clip-rule="evenodd" d="M7.172 7.90996L10.002 9.64256L12.73 7.95742L18.845 13.3594C18.684 13.4059 18.512 13.431 18.333 13.431H1.667C1.447 13.431 1.237 13.3925 1.044 13.3235L7.172 7.90996ZM20 3.47057V11.9384C20 12.1595 19.946 12.3691 19.85 12.558L13.856 7.26259L20 3.47057ZM9.43602e-07 3.51803L6.042 7.21782L0.106001 12.4631C0.0356967 12.2953 -0.000212233 12.1176 9.43602e-07 11.9384V3.51803ZM18.333 0C19.253 0 20 0.667968 20 1.49263V2.01734L9.998 8.19112L9.43602e-07 2.06837V1.49263C9.43602e-07 0.668864 0.746001 0 1.667 0H18.333Z" fill="#1D3A76"/>
</svg>
