<svg width="64" height="64" viewBox="0 0 64 64" fill="none" xmlns="http://www.w3.org/2000/svg">
<path d="M62.9486 57.9014L50.8636 45.8519C54.7627 40.8844 56.8784 34.7503 56.8706 28.4353C56.8706 22.8113 55.2029 17.3137 52.0784 12.6375C48.9538 7.96134 44.5129 4.31672 39.317 2.16452C34.1211 0.0123205 28.4037 -0.550793 22.8878 0.546389C17.3719 1.64357 12.3053 4.35177 8.32851 8.32851C4.35177 12.3053 1.64357 17.3719 0.546389 22.8878C-0.550793 28.4037 0.0123205 34.1211 2.16452 39.317C4.31672 44.5129 7.96134 48.9538 12.6375 52.0784C17.3137 55.2029 22.8113 56.8706 28.4353 56.8706C34.7503 56.8784 40.8844 54.7627 45.8519 50.8636L57.9014 62.9486C58.2318 63.2818 58.6249 63.5462 59.058 63.7266C59.4912 63.9071 59.9558 64 60.425 64C60.8942 64 61.3588 63.9071 61.7919 63.7266C62.2251 63.5462 62.6182 63.2818 62.9486 62.9486C63.2818 62.6182 63.5462 62.2251 63.7266 61.7919C63.9071 61.3588 64 60.8942 64 60.425C64 59.9558 63.9071 59.4912 63.7266 59.058C63.5462 58.6249 63.2818 58.2318 62.9486 57.9014ZM7.10883 28.4353C7.10883 24.2173 8.35961 20.0941 10.703 16.5869C13.0464 13.0798 16.3771 10.3464 20.274 8.73221C24.1709 7.11806 28.4589 6.69573 32.5959 7.51861C36.7328 8.3415 40.5328 10.3726 43.5154 13.3552C46.4979 16.3378 48.5291 20.1378 49.352 24.2747C50.1749 28.4116 49.7525 32.6997 48.1384 36.5966C46.5242 40.4935 43.7908 43.8242 40.2836 46.1676C36.7765 48.511 32.6533 49.7617 28.4353 49.7617C22.7792 49.7617 17.3547 47.5149 13.3552 43.5154C9.35572 39.5159 7.10883 34.0914 7.10883 28.4353Z" fill="white"/>
</svg>
