<svg width="20" height="19" viewBox="0 0 20 19" fill="none" xmlns="http://www.w3.org/2000/svg">
<path d="M10 0C15.523 0 20 4.08769 20 9.13043C20 14.1732 15.523 18.2609 10 18.2609C8.23279 18.2635 6.49667 17.8364 4.97001 17.0237L0.00401406 18.2609L1.35601 13.7249C0.465107 12.3305 -0.00293838 10.7447 1.38802e-05 9.13043C1.38802e-05 4.08769 4.47701 0 10 0ZM6.59201 4.83913L6.39201 4.84643C6.26253 4.85363 6.13599 4.88469 6.02001 4.93774C5.91153 4.99382 5.81251 5.06394 5.72601 5.14591C5.60601 5.24908 5.53801 5.33856 5.46501 5.4253C5.09513 5.86439 4.89598 6.40346 4.89901 6.95739C4.90101 7.40478 5.02901 7.8403 5.22901 8.24752C5.63801 9.07108 6.31101 9.94304 7.19901 10.7511C7.41301 10.9456 7.62301 11.1409 7.84901 11.3226C8.9524 12.2096 10.2673 12.8493 11.689 13.1907L12.257 13.2702C12.442 13.2793 12.627 13.2665 12.813 13.2583C13.1042 13.2446 13.3886 13.1726 13.646 13.0474C13.777 12.9858 13.9048 12.9188 14.029 12.8465C14.029 12.8465 14.072 12.8209 14.154 12.7643C14.289 12.673 14.372 12.6082 14.484 12.5014C14.567 12.4229 14.639 12.3306 14.694 12.2256C14.772 12.0768 14.85 11.7929 14.882 11.5564C14.906 11.3756 14.899 11.277 14.896 11.2158C14.892 11.1181 14.803 11.0168 14.706 10.9739L14.124 10.7356C14.124 10.7356 13.254 10.3895 12.722 10.1686C12.6663 10.1464 12.6067 10.1337 12.546 10.1311C12.4776 10.1247 12.4085 10.1317 12.3433 10.1517C12.2781 10.1717 12.2183 10.2042 12.168 10.2471C12.163 10.2453 12.096 10.2973 11.373 11.0971C11.3315 11.148 11.2743 11.1865 11.2088 11.2077C11.1433 11.2288 11.0723 11.2316 11.005 11.2158C10.9399 11.1999 10.876 11.1797 10.814 11.1556C10.69 11.1081 10.647 11.0898 10.562 11.0569C9.98807 10.8283 9.45669 10.5193 8.98701 10.1412C8.86101 10.0407 8.74401 9.93117 8.62401 9.82525C8.23059 9.48125 7.88773 9.09208 7.60401 8.66751L7.54501 8.58078C7.50263 8.52249 7.46837 8.45962 7.44301 8.3936C7.40501 8.25939 7.50401 8.15165 7.50401 8.15165C7.50401 8.15165 7.74701 7.90878 7.86001 7.7773C7.97001 7.64947 8.06301 7.5253 8.12301 7.43673C8.24101 7.26326 8.27801 7.08521 8.21601 6.94734C7.93601 6.32282 7.64601 5.70104 7.34801 5.08382C7.28901 4.96147 7.11401 4.87382 6.95501 4.85647C6.90101 4.851 6.84701 4.84552 6.79301 4.84187C6.65872 4.83577 6.52414 4.83699 6.39001 4.84552L6.59101 4.83821L6.59201 4.83913Z" fill="#1D3A76"/>
</svg>
